<svg xmlns="http://www.w3.org/2000/svg" viewBox="0 0 256 512" role="img" aria-label="Page edge texture placeholder">
  <defs>
    <linearGradient id="edge" x1="0" x2="1">
      <stop stop-color="#f8e7b8" />
      <stop offset=".42" stop-color="#d9ab66" />
      <stop offset="1" stop-color="#fff6d7" />
    </linearGradient>
  </defs>
  <rect width="256" height="512" fill="url(#edge)" />
  <g fill="none" stroke="#8a5d36" stroke-opacity=".22" stroke-width="3">
    <path d="M25 20c25 30 25 58 0 88s-25 58 0 88 25 58 0 88-25 58 0 88 25 58 0 88" />
    <path d="M78 0c-18 37-18 73 0 110s18 73 0 110-18 73 0 110 18 73 0 110" />
    <path d="M140 6c21 45 21 83 0 116s-21 71 0 116 21 83 0 116-21 71 0 116" />
    <path d="M210 0c-15 40-15 77 0 112s15 72 0 112-15 77 0 112 15 72 0 112" />
  </g>
</svg>
